<?xml version="1.0" encoding="utf-8"?>
<!-- Generator: Adobe Illustrator 21.1.0, SVG Export Plug-In . SVG Version: 6.00 Build 0)  -->
<svg version="1.1" id="Layer_1" xmlns="http://www.w3.org/2000/svg" xmlns:xlink="http://www.w3.org/1999/xlink" x="0px" y="0px"
	 viewBox="0 0 213.4 52.4" style="enable-background:new 0 0 213.4 52.4;" xml:space="preserve">
<style type="text/css">
	.st0{fill:#F2E3B0;}
	.st1{fill:#E3C898;}
	.st2{fill:#CFA35A;}
</style>
<title>Asset 1</title>
<g id="Layer_2">
	<g id="header">
		<path class="st0" d="M12.1,12c7.9-7.8,20.5-7.7,28.3,0.2c2.5,2.5,4.2,5.6,5.1,8.9l0,0l3.4-8C41.6,0.6,25.6-3.7,13.1,3.5
			c-4,2.3-7.3,5.6-9.6,9.6l0,0L12.1,12z"/>
		<path class="st1" d="M20.9,45.4C10.3,42.5,4,31.5,7,20.8c0.9-3.3,2.7-6.4,5.1-8.8l0,0l-8.6,1.1c-7.2,12.5-2.9,28.5,9.6,35.8
			c4,2.3,8.5,3.5,13.1,3.5l0,0L20.9,45.4L20.9,45.4z"/>
		<path class="st2" d="M48.9,13.1l-3.4,8l0,0c2.8,10.7-3.7,21.6-14.4,24.4c-3.3,0.9-6.9,0.8-10.2-0.1l0,0l5.3,7
			c14.5,0,26.2-11.7,26.2-26.2C52.4,21.6,51.2,17.1,48.9,13.1"/>
		<path class="st0" d="M36.3,20.3c3.2,5.6,1.3,12.7-4.3,16c-1.8,1-3.8,1.6-5.9,1.6l-5.2,7.5c10.7,2.9,21.6-3.5,24.5-14.1
			c0.9-3.3,0.9-6.8,0.1-10.1l0,0L36.3,20.3z"/>
		<path class="st2" d="M14.5,26.2c0-2.1,0.5-4.1,1.6-5.8l-4-8.3c-7.8,7.8-7.7,20.5,0.1,28.3c2.4,2.4,5.4,4.2,8.8,5.1l5.3-7.5
			C19.7,37.9,14.5,32.7,14.5,26.2"/>
		<path class="st1" d="M16.1,20.3c3.2-5.6,10.4-7.5,16-4.3c1.8,1,3.3,2.5,4.3,4.3l9.2,0.8l0,0c-2.9-10.6-13.8-17-24.5-14.2
			c-3.4,0.9-6.5,2.7-9,5.1L16.1,20.3z"/>
		<path d="M105.7,21c-0.4-1.3-0.9-2.6-1.6-3.8c-0.7-1.1-1.6-2.2-2.6-3.1c-1-0.9-2.2-1.6-3.4-2.1c-1.3-0.5-2.6-0.8-4-0.8
			c-1.8,0-3.6,0.4-5.2,1.3c-1.5,0.9-2.8,2-3.8,3.5s-1.8,3.1-2.4,4.9c-0.5,1.8-0.8,3.7-0.8,5.6s0.3,3.9,0.9,5.7
			c0.5,1.7,1.4,3.2,2.5,4.6c1.1,1.3,2.4,2.4,3.9,3.1c1.6,0.8,3.3,1.2,5.1,1.1c1.4,0,2.8-0.3,4.1-0.8c1.2-0.5,2.4-1.2,3.4-2.1
			c1-0.9,1.8-1.9,2.5-3s1.1-2.3,1.4-3.5h0.5l-0.1,9.3h-0.5c-0.3-0.5-0.7-0.9-1.1-1.3c-0.4-0.4-0.6-0.6-0.8-0.6
			c-0.3,0.1-0.5,0.3-0.8,0.4c-0.6,0.4-1.3,0.7-1.9,1c-1,0.4-2,0.7-3.1,0.9c-1.4,0.3-2.8,0.4-4.2,0.4c-2.4,0-4.8-0.3-7.1-1.1
			c-2-0.7-3.8-1.8-5.4-3.2c-1.5-1.4-2.6-3-3.4-4.9c-1-2.5-1.4-5.3-1.1-8c0.1-0.7,0.2-1.4,0.4-2.1c0.2-0.8,0.5-1.6,0.8-2.3
			c0.3-0.8,0.8-1.7,1.2-2.4c0.6-1,1.4-1.9,2.2-2.8c0.9-0.9,2-1.7,3.1-2.3c1.3-0.7,2.6-1.2,4-1.6c1.6-0.4,3.3-0.6,5-0.6
			c1.5,0,3,0.1,4.4,0.5c1.1,0.2,2.1,0.6,3.2,1c0.7,0.3,1.3,0.6,1.9,1c0.2,0.2,0.5,0.3,0.8,0.5c0.1,0,0.2-0.1,0.3-0.2
			c0.2-0.1,0.3-0.3,0.5-0.5s0.4-0.4,0.6-0.6c0.2-0.2,0.4-0.5,0.6-0.7h0.5v9.4L105.7,21z M120.9,41.6v-0.4c0.7-0.1,1.4-0.3,2-0.5
			s1.1-0.6,1.5-1.1c0.2-0.2,0.3-0.5,0.3-0.7c0.1-0.4,0.1-0.7,0.2-1.1c0-0.4,0.1-0.9,0.1-1.3s0-0.9,0-1.4s0-0.9,0-1.6s0-1.4,0-2.2
			s0-1.6,0-2.5V16.4c0-0.5,0-1-0.1-1.4c0-0.4-0.1-0.8-0.2-1.2c-0.1-0.3-0.2-0.6-0.4-0.8c-0.4-0.5-0.9-0.8-1.5-1s-1.3-0.4-2-0.4v-0.4
			h12.7v0.4c-0.6,0.1-1.3,0.3-1.9,0.5c-0.7,0.2-1.2,0.7-1.6,1.4c-0.3,0.6-0.4,1.2-0.4,1.8c0,0.7,0,1.4-0.1,2.1s0,1.5,0,2.2
			s0,1.4,0,2.1v14.1c0,0.8,0,1.6,0,2.4c0,0.6,0.1,1.1,0.4,1.6c0.4,0.5,1,0.9,1.6,1.1c0.6,0.2,1.3,0.4,2,0.5v0.4L120.9,41.6z
			 M176.3,27.9c-0.5,0.1-0.9,0.4-1.2,0.9c-0.2,0.4-0.4,0.9-0.3,1.4c0,0.7,0,1.3,0,1.9v6.2c-0.5,0.3-0.9,0.6-1.5,0.8
			c-0.9,0.5-1.9,0.9-2.8,1.2c-1.2,0.4-2.4,0.8-3.7,1c-1.3,0.3-2.7,0.4-4,0.4c-2.4,0-4.8-0.3-7.2-1c-2-0.6-3.8-1.6-5.3-3
			s-2.6-3-3.3-4.9c-0.8-2.1-1.2-4.3-1.2-6.5c0-0.8,0.1-1.6,0.2-2.4c0.2-1,0.4-2,0.7-2.9c0.4-1.1,0.8-2.1,1.4-3.1
			c0.7-1.1,1.5-2.1,2.4-3c1.4-1.4,3.1-2.5,5-3.2c2.3-0.9,4.7-1.3,7.2-1.2c1.5,0,3,0.1,4.5,0.4c1.1,0.3,2.2,0.6,3.3,1
			c0.7,0.3,1.4,0.6,2,1c0.2,0.2,0.5,0.3,0.8,0.4c0.1,0,0.2-0.2,0.5-0.5l0.9-1.2h0.4v9.1h-0.5c-0.3-1.3-0.8-2.5-1.4-3.6
			c-0.5-1-1.2-2-2-2.8c-1-1-2.2-1.8-3.5-2.3c-1.5-0.6-3.1-0.9-4.7-0.9c-1.7,0-3.5,0.4-5,1.2s-2.8,2-3.8,3.3
			c-1.1,1.5-1.9,3.1-2.4,4.8c-0.6,1.9-0.8,3.8-0.8,5.7c0,2,0.2,4,0.8,6c0.5,1.7,1.3,3.3,2.3,4.7c1,1.3,2.3,2.3,3.7,3
			c1.6,0.7,3.3,1.1,5,1.1c1.3,0,2.6-0.2,3.8-0.7c1.1-0.4,2.1-1.2,2.8-2.3c0.3-0.6,0.5-1.3,0.5-1.9c0.1-1,0.2-1.9,0.2-2.9
			c0-0.9,0-1.8-0.1-2.7c-0.1-0.7-0.4-1.4-0.9-1.9c-0.9-0.9-2.2-1.3-3.4-1.3v-0.4h12.4v0.4C177.3,27.6,176.8,27.7,176.3,27.9
			L176.3,27.9z M212.9,22.8c-0.3,0.8-0.8,1.5-1.3,2.2c-0.6,0.6-1.2,1.2-1.9,1.7s-1.4,0.8-2.2,1.1c-0.8,0.3-1.7,0.5-2.5,0.6
			c-0.9,0.1-1.8,0.2-2.7,0.3c-0.9,0.1-1.8,0.1-2.7,0.1h-2.3v4c0,0.5,0,0.9,0,1.3s0,0.8,0,1.3c0,0.9,0.1,1.7,0.1,2.3s0.2,1.1,0.5,1.6
			s0.8,0.8,1.3,1.1c0.8,0.4,1.8,0.6,2.7,0.6v0.4h-13.5V41c0.7-0.1,1.3-0.3,2-0.5c0.6-0.2,1.1-0.5,1.5-1c0.2-0.2,0.3-0.5,0.3-0.8
			c0.1-0.4,0.2-0.8,0.2-1.1c0-0.4,0.1-0.9,0.1-1.3s0-0.9,0-1.4s0-0.9,0-1.6s0-1.4,0-2.2s0-1.6,0-2.5V18c0-0.5,0-1,0-1.5
			c0-0.5,0-1-0.1-1.5c0-0.4-0.1-0.9-0.2-1.3c-0.1-0.3-0.2-0.6-0.4-0.8c-0.4-0.4-0.9-0.7-1.4-0.9c-0.7-0.2-1.4-0.3-2.1-0.4v-0.5h12
			c1.6,0,3.3,0.1,4.9,0.3c1.4,0.2,2.8,0.6,4.1,1.3c1.2,0.7,2.3,1.7,3.1,2.9c0.8,1.3,1.3,2.9,1.2,4.4C213.4,21,213.3,21.9,212.9,22.8
			L212.9,22.8z M207.6,15.4c-1.2-1.9-3.2-3.2-5.4-3.5c-0.8-0.1-1.6-0.2-2.4-0.2h-2.6v16.5c1.2,0,2.2,0,3.2-0.1s1.9-0.3,2.8-0.6
			c1.7-0.5,3.1-1.6,4.1-3.1c1-1.4,1.5-3.1,1.4-4.8C208.9,18.2,208.5,16.7,207.6,15.4L207.6,15.4z"/>
	</g>
</g>
</svg>
